Coordinates
version=1
nRows=26
nColumns=22
inDegrees=yes

Units are S.I. units (second, meters, Newtons, ...)
If the header above contains a line with 'inDegrees', this indicates whether rotational values are in degrees (yes) or radians (no).

endheader
time	pelvis_tilt	pelvis_list	pelvis_rotation	pelvis_tx	pelvis_ty	pelvis_tz	hip_flexion_r	hip_adduction_r	hip_rotation_r	knee_angle_r	ankle_angle_r	subtalar_angle_r	hip_flexion_l	hip_adduction_l	hip_rotation_l	knee_angle_l	ankle_angle_l	subtalar_angle_l	lumbar_extension	lumbar_bending	lumbar_rotation
      4.39000000	      1.28145321	     -1.27836282	    -35.35512009	      0.45087583	      1.06299247	     -0.29203333	     -7.76900373	     12.42815755	      8.59369875	     -7.94647784	     11.92839321	    -10.51313149	     23.05055876	     -6.12395906	      5.52299808	    -38.08974156	      8.32654592	     -0.52463239	     -5.54698649	     -0.10034899	      2.73704194
      4.40000000	      1.29841909	     -1.03155560	    -36.30138256	      0.45637094	      1.06242450	     -0.28739710	     -7.96094365	     12.07799590	      9.26646196	     -8.32527333	     12.32131220	    -10.48888268	     23.30991622	     -5.81935772	      4.88464630	    -35.80934201	      8.23554663	     -0.02355740	     -5.51582966	     -0.32558054	      2.82377602
      4.41000000	      1.35141944	     -0.78118427	    -37.19458869	      0.46197870	      1.06179947	     -0.28278238	     -8.16006750	     11.70824252	      9.86885291	     -8.72064579	     12.71548741	    -10.50841809	     23.49613799	     -5.47139892	      4.17293389	    -33.48245258	      8.07454022	      0.74587173	     -5.51002268	     -0.56421275	      2.84950336
      4.42000000	      1.41975360	     -0.53366878	    -38.05617367	      0.46767266	      1.06109200	     -0.27816985	     -8.34557886	     11.33632023	     10.41854016	     -9.15382031	     13.12031725	    -10.56111723	     23.61851010	     -5.09432462	      3.41924463	    -31.11814180	      7.85039875	      1.71480863	     -5.51497692	     -0.80278658	      2.87218373
      4.43000000	      1.51286052	     -0.29187712	    -38.88501572	      0.47348923	      1.06032496	     -0.27354922	     -8.54243062	     10.95402734	     10.91711416	     -9.59875642	     13.52330494	    -10.63724263	     23.66356506	     -4.67758060	      2.65556609	    -28.72775402	      7.58967892	      2.90904718	     -5.53757404	     -1.04210595	      2.87700577
      4.44000000	      1.62439260	     -0.05705998	    -39.70204803	      0.47942130	      1.05949405	     -0.26889570	     -8.74384134	     10.56145052	     11.37053202	    -10.06773929	     13.94302867	    -10.71837613	     23.63010570	     -4.22662154	      1.92038782	    -26.32451522	      7.34716464	      4.27507658	     -5.57067525	     -1.27897033	      2.89740961
      4.45000000	      1.75309897	      0.17723230	    -40.45923637	      0.48553196	      1.05863053	     -0.26422253	     -8.99034857	     10.15233346	     11.81973618	    -10.46940035	     14.31251112	    -10.78958314	     23.52632705	     -3.71323620	      1.33121063	    -23.91926757	      7.09421815	      5.92328555	     -5.60312700	     -1.51790564	      2.84280797
      4.46000000	      1.88956031	      0.40610345	    -41.20566164	      0.49175866	      1.05771823	     -0.25948469	     -9.24139900	      9.73334250	     12.24121055	    -10.87988281	     14.69295085	    -10.83155944	     23.34586128	     -3.16717194	      0.91341833	    -21.52492808	      6.91517325	      7.69855419	     -5.63161630	     -1.75328185	      2.80460405
      4.47000000	      2.03285679	      0.62761368	    -41.93142761	      0.49811332	      1.05677855	     -0.25466902	     -9.51203956	      9.30510867	     12.66085762	    -11.27271032	     15.06308658	    -10.83364704	     23.08515479	     -2.59250750	      0.73527294	    -19.15731691	      6.80956644	      9.55049973	     -5.65307637	     -1.98198766	      2.74996547
      4.48000000	      2.17673881	      0.83610599	    -42.63285599	      0.50456918	      1.05581973	     -0.24973654	     -9.80264632	      8.87976662	     13.08412291	    -11.64524429	     15.41313812	    -10.79120985	     22.74803058	     -2.01101951	      0.82517575	    -16.84441471	      6.77155274	     11.39269654	     -5.66613153	     -2.20343615	      2.68508497
      4.49000000	      2.31349178	      1.02141280	    -43.32097248	      0.51111055	      1.05484623	     -0.24464968	    -10.11002074	      8.47102617	     13.51727263	    -12.01049690	     15.73136142	    -10.70480403	     22.34223452	     -1.45447739	      1.16096752	    -14.63411798	      6.79219813	     13.09517483	     -5.67023560	     -2.40497297	      2.61750887
      4.50000000	      2.43880021	      1.17551474	    -44.00062597	      0.51771976	      1.05386579	     -0.23936566	    -10.43630313	      8.09061273	     13.96260452	    -12.37299796	     16.01504061	    -10.57794385	     21.88636105	     -0.94826672	      1.67844015	    -12.59601815	      6.85780745	     14.54710484	     -5.66654347	     -2.58219704	      2.55947105
      4.51000000	      2.55344257	      1.31330257	    -44.67953694	      0.52440037	      1.05287461	     -0.23384756	    -10.75852259	      7.72796006	     14.37569984	    -12.75835490	     16.25307743	    -10.42107907	     21.41613076	     -0.49037151	      2.27395982	    -10.80722061	      6.93755926	     15.63946335	     -5.64029485	     -2.75325223	      2.53153187
      4.52000000	      2.62932020	      1.38584564	    -45.34419588	      0.53112554	      1.05189970	     -0.22810469	    -11.11787739	      7.44545322	     14.85056404	    -13.12259852	     16.44651744	    -10.22487325	     20.96188081	     -0.13121427	      2.90537573	     -9.36960202	      7.02867278	     16.43512177	     -5.61545473	     -2.85280378	      2.50114254
      4.53000000	      2.68905311	      1.45680216	    -46.00676776	      0.53791417	      1.05093699	     -0.22212930	    -11.44396797	      7.17939272	     15.26948555	    -13.53675319	     16.57474587	    -10.01099811	     20.56708412	      0.19570027	      3.47113012	     -8.32536303	      7.06382320	     16.82088263	     -5.55508084	     -2.95357448	      2.49819643
      4.54000000	      2.73359281	      1.50711229	    -46.65907921	      0.54474683	      1.05003047	     -0.21591886	    -11.76123749	      6.94852025	     15.66341806	    -13.98549288	     16.65853927	     -9.76304040	     20.22721449	      0.48769815	      3.99962603	     -7.69354782	      6.98738559	     16.83642948	     -5.47940343	     -3.04595695	      2.49912878
      4.55000000	      2.77605122	      1.56378209	    -47.30292015	      0.55164918	      1.04921498	     -0.20948973	    -12.04382843	      6.72143695	     15.98313835	    -14.49065127	     16.68639270	     -9.46645902	     19.93535531	      0.77910009	      4.49792377	     -7.42238279	      6.71901985	     16.41638232	     -5.37461263	     -3.15348817	      2.49702855
      4.56000000	      2.81245192	      1.64403868	    -47.93404164	      0.55857670	      1.04849940	     -0.20284746	    -12.25680171	      6.49826359	     16.22163265	    -15.08289854	     16.65610277	     -9.14072499	     19.69740945	      1.07978386	      5.05523872	     -7.45883878	      6.19049397	     15.58524505	     -5.22743395	     -3.29484246	      2.47586624
      4.57000000	      2.86389166	      1.73967847	    -48.55153233	      0.56554728	      1.04795868	     -0.19605157	    -12.41269212	      6.26435478	     16.35983940	    -15.76905624	     16.55800255	     -8.75360550	     19.47979101	      1.40217369	      5.72479947	     -7.73087321	      5.37690010	     14.35476193	     -5.06706531	     -3.47079071	      2.46268086
      4.58000000	      2.95050375	      1.87819484	    -49.15830845	      0.57253009	      1.04762164	     -0.18906587	    -12.48692266	      5.99202715	     16.39270699	    -16.57909139	     16.38989710	     -8.28242380	     19.26638876	      1.76977320	      6.48787768	     -8.13853794	      4.30194685	     12.81978958	     -4.88239859	     -3.72739065	      2.40973873
      4.59000000	      3.05762865	      2.02781312	    -49.76709920	      0.57948249	      1.04755281	     -0.18189678	    -12.50146074	      5.71099862	     16.38116259	    -17.48911322	     16.08103606	     -7.69264046	     19.04413344	      2.13862564	      7.32249932	     -8.63423162	      3.05612057	     11.05991484	     -4.69145631	     -4.02490809	      2.35195435
      4.60000000	      3.21883558	      2.21700126	    -50.35889364	      0.58643063	      1.04773620	     -0.17459996	    -12.41435127	      5.37796937	     16.21246310	    -18.56871045	     15.69448149	     -6.95686696	     18.82605261	      2.55410671	      8.14886761	     -9.19939961	      1.81914876	      9.27367077	     -4.49818645	     -4.41116733	      2.26045916
      4.61000000	      3.41683356	      2.42433229	    -50.94116875	      0.59334710	      1.04817947	     -0.16717045	    -12.23516306	      5.01782276	     15.93731816	    -19.80251152	     15.18529806	     -6.03347271	     18.61511346	      2.97855882	      8.88364613	     -9.82283489	      0.74192421	      7.58173567	     -4.30655096	     -4.85338738	      2.14179997
      4.62000000	      3.63756795	      2.63540771	    -51.51845321	      0.60020921	      1.04887103	     -0.15962975	    -11.95955693	      4.64579050	     15.56930941	    -21.19153421	     14.52224159	     -4.89009729	     18.41427975	      3.38607140	      9.45939741	    -10.49769859	     -0.06173999	      6.12363395	     -4.12177841	     -5.32560562	      2.01093193
      4.63000000	      3.86885446	      2.84373203	    -52.09558482	      0.60699837	      1.04977878	     -0.15200481	    -11.57581960	      4.26997509	     15.11915840	    -22.74177989	     13.67689270	     -3.50333941	     18.21607109	      3.76138932	      9.84697245	    -11.19681866	     -0.53640916	      4.99502194	     -3.94309441	     -5.80877959	      1.87289337
      4.64000000	      4.10060341	      3.04123968	    -52.68006891	      0.61368257	      1.05087162	     -0.14433566	    -11.07483895	      3.89702162	     14.60221349	    -24.45451408	     12.62133168	     -1.85813439	     18.00123640	      4.09193799	     10.04332899	    -11.87743401	     -0.68417251	      4.21143233	     -3.77590202	     -6.28319705	      1.73065734
